<svg viewBox="0 0 608 251" xmlns="http://www.w3.org/2000/svg">
	<g fill="#000" fill-rule="nonzero">
		<path d="M24.797 21.771h15.195c10.69 0 21.128.993 21.128 12.855 0 11.726-9.994 12.698-21.128 12.698H24.797V21.771zM73.155 61.77c9.058-5.41 13.462-14.289 13.462-27.143 0-12.866-4.404-21.77-13.463-27.222C65.493 2.792 54.708.645 39.211.645H.703v102.93h24.094V68.448h14.414c15.527 0 26.313-2.122 33.944-6.68zM121.6 53.195c2.347-1.948 5.553-2.856 10.088-2.856 3.458 0 7.075.482 9.627.877V26.99c-1.126-.118-2.272-.118-3.383-.118-9.557.405-16.011 4.632-20.911 13.704l-.686 1.27V27.808H93.961v75.765h23.154V65.848c0-6.01 1.467-10.15 4.484-12.653M187.08 70.013l11.642-1.132v4.46c0 4.899-1.893 8.894-5.475 11.553-3.028 2.249-7.2 3.487-11.75 3.487-7.265 0-11.603-3.288-11.603-8.795 0-5.535 5.14-8.398 17.187-9.573zm33.55-13.381c.159-9.846 8.766-14.253 17.226-14.253 4.491 0 8.609 1.225 11.592 3.448 3.406 2.538 5.245 6.273 5.319 10.805l.006.37h-34.149l.006-.37zM153.875 97.93c5.491 4.919 13.477 7.518 23.095 7.518 13.676 0 22.878-4 29.84-12.972l.281-.363.29.356c6.89 8.491 17.644 12.979 31.096 12.979 10.731 0 29.978-3.053 38.835-23.417l-20.836-4.68c-3.149 6.387-9.149 9.625-17.84 9.625-4.683 0-9.044-1.314-12.277-3.701-3.626-2.677-5.662-6.538-5.886-11.165l-.02-.383h57.335c.865-14.81-2.66-26.874-10.202-34.905-6.88-7.327-17.054-11.199-29.42-11.199-9.911 0-18.847 2.942-25.843 8.508l-.255.203-.23-.23c-5.418-5.42-14.05-8.168-25.658-8.168-13.094 0-35.322 3.205-37.686 24.575l21.74.754c.6-6.237 5.638-9.667 14.23-9.667 9.3 0 13.633 3.34 13.633 10.512v2.203l-12.505 1.281c-10.781 1.092-21.835 2.768-29.66 7.598-4.478 2.783-9.817 7.967-9.817 16.862 0 7.045 2.756 13.394 7.76 17.876zM325.29 83.073c-10.022 0-16.756-7.738-16.756-19.254 0-12.137 6.107-19.099 16.756-19.099 10.491 0 16.756 7.082 16.756 18.942 0 11.43-6.89 19.411-16.756 19.411m-26.935 41.267c6.581 5.281 15.328 7.96 25.998 7.96 13 0 23-3.172 29.726-9.426 6.655-6.345 10.03-15.763 10.03-27.99V27.809h-23.155v8.621l-.666-.975c-2.902-4.247-9.92-9.207-20.151-9.207-10.33 0-19.047 3.236-25.207 9.359-6.555 6.514-10.02 16.216-10.02 28.055 0 12.272 3.202 21.852 9.52 28.473 5.873 6.156 14.33 9.41 24.46 9.41 8.873 0 16.875-3.737 21.403-9.996l.661-.913v8.933c0 5.245-1.524 9.064-4.659 11.675-2.87 2.265-6.824 3.364-12.096 3.364-8.686 0-13.448-2.664-15.864-8.893l-21 .453c1.623 7.407 5.427 13.683 11.02 18.172M205.586 250.448c21.386 0 43.036-11.511 43.036-33.511 0-20.3-19.351-26.093-37.49-29.93l-14.365-3.123c-7.937-1.689-12.31-5.474-12.31-10.659 0-5.425 6.303-8.796 16.446-8.796 10.871 0 18.815 4.472 21.329 11.98l23.97-3.488c-2.165-9.249-7.612-16.79-15.77-21.827-7.595-4.688-17.32-7.166-28.123-7.166-10.55 0-21.002 2.649-28.673 7.266-6.41 3.857-14.05 11.028-14.05 23.28 0 15.57 10.376 25.41 31.718 30.085l12.799 2.81c9.636 2.043 19.489 5.111 19.489 12.377 0 6.387-6.673 10.2-17.847 10.2-13.39 0-22.002-5.49-24.932-15.882l-23.96 3.49c4.894 21.216 22.183 32.894 48.733 32.894M289.504 248.574h14.931v-18.16h-6.5c-9.06 0-10.671-2.386-10.671-9.107v-30.651h17.171v-17.847h-17.171V149.86h-23.155v22.95h-12.333v17.846h12.333v36.427c0 18.244 6.653 21.491 25.395 21.491M387.553 248.574V172.81H364.4v38.975c0 13.856-4.302 20.036-13.948 20.036-5.016 0-7.998-1.166-9.972-3.898-2.047-2.833-2.881-7.508-2.881-16.138v-38.975h-23.155v45.376c0 12.015 1.757 19.551 5.697 24.437 4.273 5.192 11.268 7.826 20.789 7.826 13.204 0 19.181-5.375 23.287-10.632l.653-.835v9.593h22.684zM438.671 231.976c-9.89 0-17.07-8.886-17.07-21.128 0-12.334 7.18-21.285 17.07-21.285 10.273 0 16.911 8.293 16.911 21.128 0 13.129-6.48 21.285-16.91 21.285zm38.975 16.598V145.645H454.49v35.317l-.666-.975c-4.485-6.566-13.912-8.896-20.621-8.896-10.16 0-18.873 3.61-25.197 10.44-6.562 7.087-10.03 17.17-10.03 29.16 0 12.23 3.295 22.404 9.529 29.42 6.008 6.762 14.464 10.337 24.451 10.337 6.95 0 16.847-2.616 21.867-9.99l.667-.977v9.093h23.155zM493.475 164.117h23.155v-18.472h-23.155zM493.475 248.574h23.155V172.81h-23.155zM.703 248.574h118.462V225.42H.703zM583.833 210.848c0 12.834-6.64 21.128-16.915 21.128-10.335 0-16.756-8.096-16.756-21.128 0-12.93 6.578-21.285 16.756-21.285 10.275 0 16.915 8.355 16.915 21.285m-45.183-30.091c-7.924 6.992-12.112 17.398-12.112 30.09 0 12.684 4.188 23.061 12.111 30.012 7.048 6.184 17.088 9.588 28.269 9.588 11.14 0 21.185-3.405 28.29-9.59 8.01-6.973 12.246-17.35 12.246-30.01 0-12.668-4.235-23.074-12.248-30.09-7.118-6.233-17.164-9.667-28.288-9.667-11.166 0-21.205 3.434-28.268 9.667" />
	</g>
</svg>
